<?xml version="1.0" encoding="UTF-8"?>
<svg xmlns="http://www.w3.org/2000/svg" xmlns:xlink="http://www.w3.org/1999/xlink" width="1440pt" height="133.500001pt" viewBox="0 0 1440 133.500001" version="1.2">
<defs>
<clipPath id="clip1">
  <path d="M 2.6875 24.3125 L 1436.957031 24.3125 L 1436.957031 132.65625 L 2.6875 132.65625 Z M 2.6875 24.3125 "/>
</clipPath>
<clipPath id="clip2">
  <path d="M 1258 0 L 1437.3125 0 L 1437.3125 25 L 1258 25 Z M 1258 0 "/>
</clipPath>
<clipPath id="clip3">
  <path d="M 2.6875 0 L 18 0 L 18 25 L 2.6875 25 Z M 2.6875 0 "/>
</clipPath>
</defs>
<g id="surface1">
<g clip-path="url(#clip1)" clip-rule="nonzero">
<path style=" stroke:none;fill-rule:nonzero;fill:rgb(35.688782%,2.749634%,43.919373%);fill-opacity:1;" d="M -4.394531 24.3125 L 1436.957031 24.3125 L 1436.957031 132.65625 L -4.394531 132.65625 Z M -4.394531 24.3125 "/>
</g>
<path style=" stroke:none;fill-rule:nonzero;fill:rgb(35.688782%,2.749634%,43.919373%);fill-opacity:1;" d="M 132.140625 -1.609375 L 105.796875 24.402344 L 115.265625 24.402344 L 141.613281 -1.609375 Z M 150.066406 -1.609375 L 123.722656 24.402344 L 133.191406 24.402344 L 159.539062 -1.609375 Z M 114.214844 -1.609375 L 87.863281 24.402344 L 97.335938 24.402344 L 123.6875 -1.609375 Z M 78.359375 -1.609375 L 52.011719 24.402344 L 61.484375 24.402344 L 87.832031 -1.609375 Z M 24.574219 -1.609375 L 16.121094 6.738281 L 16.121094 16.089844 L 34.046875 -1.609375 Z M 60.433594 -1.609375 L 34.082031 24.402344 L 43.554688 24.402344 L 69.902344 -1.609375 Z M 42.503906 -1.609375 L 16.160156 24.402344 L 25.628906 24.402344 L 51.976562 -1.609375 Z M 96.285156 -1.609375 L 69.9375 24.402344 L 79.410156 24.402344 L 105.757812 -1.609375 Z M 167.996094 -1.609375 L 141.648438 24.402344 L 151.121094 24.402344 L 177.46875 -1.609375 Z M 159.578125 24.402344 L 169.046875 24.402344 L 195.394531 -1.609375 L 185.925781 -1.609375 Z M 177.503906 24.402344 L 186.976562 24.402344 L 195.394531 16.089844 L 195.394531 6.742188 Z M 177.503906 24.402344 "/>
<path style=" stroke:none;fill-rule:nonzero;fill:rgb(35.688782%,2.749634%,43.919373%);fill-opacity:1;" d="M 309.574219 -1.609375 L 283.230469 24.402344 L 292.699219 24.402344 L 319.046875 -1.609375 Z M 327.5 -1.609375 L 301.15625 24.402344 L 310.625 24.402344 L 336.972656 -1.609375 Z M 291.648438 -1.609375 L 265.296875 24.402344 L 274.769531 24.402344 L 301.121094 -1.609375 Z M 255.792969 -1.609375 L 229.445312 24.402344 L 238.917969 24.402344 L 265.265625 -1.609375 Z M 202.007812 -1.609375 L 193.554688 6.738281 L 193.554688 16.089844 L 211.480469 -1.609375 Z M 237.867188 -1.609375 L 211.515625 24.402344 L 220.988281 24.402344 L 247.335938 -1.609375 Z M 219.9375 -1.609375 L 193.59375 24.402344 L 203.0625 24.402344 L 229.410156 -1.609375 Z M 273.71875 -1.609375 L 247.371094 24.402344 L 256.84375 24.402344 L 283.191406 -1.609375 Z M 345.429688 -1.609375 L 319.082031 24.402344 L 328.554688 24.402344 L 354.902344 -1.609375 Z M 337.011719 24.402344 L 346.480469 24.402344 L 372.828125 -1.609375 L 363.359375 -1.609375 Z M 354.9375 24.402344 L 364.410156 24.402344 L 372.828125 16.089844 L 372.828125 6.742188 Z M 354.9375 24.402344 "/>
<path style=" stroke:none;fill-rule:nonzero;fill:rgb(35.688782%,2.749634%,43.919373%);fill-opacity:1;" d="M 487.007812 -1.609375 L 460.664062 24.402344 L 470.132812 24.402344 L 496.480469 -1.609375 Z M 504.933594 -1.609375 L 478.589844 24.402344 L 488.058594 24.402344 L 514.40625 -1.609375 Z M 469.082031 -1.609375 L 442.730469 24.402344 L 452.203125 24.402344 L 478.554688 -1.609375 Z M 433.226562 -1.609375 L 406.878906 24.402344 L 416.351562 24.402344 L 442.699219 -1.609375 Z M 379.441406 -1.609375 L 370.988281 6.738281 L 370.988281 16.089844 L 388.914062 -1.609375 Z M 415.300781 -1.609375 L 388.949219 24.402344 L 398.421875 24.402344 L 424.769531 -1.609375 Z M 397.371094 -1.609375 L 371.027344 24.402344 L 380.496094 24.402344 L 406.84375 -1.609375 Z M 451.152344 -1.609375 L 424.804688 24.402344 L 434.277344 24.402344 L 460.625 -1.609375 Z M 522.863281 -1.609375 L 496.515625 24.402344 L 505.988281 24.402344 L 532.335938 -1.609375 Z M 514.445312 24.402344 L 523.914062 24.402344 L 550.261719 -1.609375 L 540.792969 -1.609375 Z M 532.371094 24.402344 L 541.84375 24.402344 L 550.261719 16.089844 L 550.261719 6.742188 Z M 532.371094 24.402344 "/>
<path style=" stroke:none;fill-rule:nonzero;fill:rgb(35.688782%,2.749634%,43.919373%);fill-opacity:1;" d="M 664.441406 -1.609375 L 638.097656 24.402344 L 647.566406 24.402344 L 673.914062 -1.609375 Z M 682.367188 -1.609375 L 656.023438 24.402344 L 665.492188 24.402344 L 691.839844 -1.609375 Z M 646.515625 -1.609375 L 620.164062 24.402344 L 629.636719 24.402344 L 655.988281 -1.609375 Z M 610.660156 -1.609375 L 584.3125 24.402344 L 593.785156 24.402344 L 620.132812 -1.609375 Z M 556.875 -1.609375 L 548.421875 6.738281 L 548.421875 16.089844 L 566.347656 -1.609375 Z M 592.734375 -1.609375 L 566.382812 24.402344 L 575.855469 24.402344 L 602.203125 -1.609375 Z M 574.808594 -1.609375 L 548.460938 24.402344 L 557.929688 24.402344 L 584.277344 -1.609375 Z M 628.585938 -1.609375 L 602.238281 24.402344 L 611.710938 24.402344 L 638.058594 -1.609375 Z M 700.296875 -1.609375 L 673.949219 24.402344 L 683.421875 24.402344 L 709.769531 -1.609375 Z M 691.878906 24.402344 L 701.347656 24.402344 L 727.695312 -1.609375 L 718.226562 -1.609375 Z M 709.804688 24.402344 L 719.277344 24.402344 L 727.695312 16.089844 L 727.695312 6.742188 Z M 709.804688 24.402344 "/>
<path style=" stroke:none;fill-rule:nonzero;fill:rgb(35.688782%,2.749634%,43.919373%);fill-opacity:1;" d="M 841.875 -1.609375 L 815.53125 24.402344 L 825 24.402344 L 851.347656 -1.609375 Z M 859.800781 -1.609375 L 833.457031 24.402344 L 842.925781 24.402344 L 869.273438 -1.609375 Z M 823.949219 -1.609375 L 797.597656 24.402344 L 807.070312 24.402344 L 833.421875 -1.609375 Z M 788.09375 -1.609375 L 761.746094 24.402344 L 771.21875 24.402344 L 797.566406 -1.609375 Z M 734.308594 -1.609375 L 725.855469 6.738281 L 725.855469 16.089844 L 743.78125 -1.609375 Z M 770.167969 -1.609375 L 743.816406 24.402344 L 753.289062 24.402344 L 779.636719 -1.609375 Z M 752.238281 -1.609375 L 725.894531 24.402344 L 735.363281 24.402344 L 761.710938 -1.609375 Z M 806.019531 -1.609375 L 779.671875 24.402344 L 789.144531 24.402344 L 815.492188 -1.609375 Z M 877.730469 -1.609375 L 851.382812 24.402344 L 860.855469 24.402344 L 887.203125 -1.609375 Z M 869.3125 24.402344 L 878.78125 24.402344 L 905.128906 -1.609375 L 895.660156 -1.609375 Z M 887.238281 24.402344 L 896.710938 24.402344 L 905.128906 16.089844 L 905.128906 6.742188 Z M 887.238281 24.402344 "/>
<path style=" stroke:none;fill-rule:nonzero;fill:rgb(35.688782%,2.749634%,43.919373%);fill-opacity:1;" d="M 1019.308594 -1.609375 L 992.964844 24.402344 L 1002.433594 24.402344 L 1028.78125 -1.609375 Z M 1037.234375 -1.609375 L 1010.890625 24.402344 L 1020.359375 24.402344 L 1046.707031 -1.609375 Z M 1001.382812 -1.609375 L 975.03125 24.402344 L 984.503906 24.402344 L 1010.855469 -1.609375 Z M 965.527344 -1.609375 L 939.179688 24.402344 L 948.652344 24.402344 L 975 -1.609375 Z M 911.742188 -1.609375 L 903.289062 6.738281 L 903.289062 16.089844 L 921.214844 -1.609375 Z M 947.601562 -1.609375 L 921.25 24.402344 L 930.722656 24.402344 L 957.070312 -1.609375 Z M 929.671875 -1.609375 L 903.328125 24.402344 L 912.796875 24.402344 L 939.144531 -1.609375 Z M 983.453125 -1.609375 L 957.105469 24.402344 L 966.578125 24.402344 L 992.925781 -1.609375 Z M 1055.164062 -1.609375 L 1028.816406 24.402344 L 1038.289062 24.402344 L 1064.636719 -1.609375 Z M 1046.746094 24.402344 L 1056.214844 24.402344 L 1082.5625 -1.609375 L 1073.09375 -1.609375 Z M 1064.671875 24.402344 L 1074.144531 24.402344 L 1082.5625 16.089844 L 1082.5625 6.742188 Z M 1064.671875 24.402344 "/>
<path style=" stroke:none;fill-rule:nonzero;fill:rgb(35.688782%,2.749634%,43.919373%);fill-opacity:1;" d="M 1196.742188 -1.609375 L 1170.398438 24.402344 L 1179.867188 24.402344 L 1206.214844 -1.609375 Z M 1214.667969 -1.609375 L 1188.324219 24.402344 L 1197.792969 24.402344 L 1224.140625 -1.609375 Z M 1178.816406 -1.609375 L 1152.464844 24.402344 L 1161.9375 24.402344 L 1188.289062 -1.609375 Z M 1142.960938 -1.609375 L 1116.613281 24.402344 L 1126.085938 24.402344 L 1152.433594 -1.609375 Z M 1089.175781 -1.609375 L 1080.722656 6.738281 L 1080.722656 16.089844 L 1098.648438 -1.609375 Z M 1125.035156 -1.609375 L 1098.683594 24.402344 L 1108.15625 24.402344 L 1134.503906 -1.609375 Z M 1107.109375 -1.609375 L 1080.761719 24.402344 L 1090.230469 24.402344 L 1116.578125 -1.609375 Z M 1160.886719 -1.609375 L 1134.539062 24.402344 L 1144.011719 24.402344 L 1170.359375 -1.609375 Z M 1232.597656 -1.609375 L 1206.25 24.402344 L 1215.722656 24.402344 L 1242.070312 -1.609375 Z M 1224.179688 24.402344 L 1233.648438 24.402344 L 1259.996094 -1.609375 L 1250.527344 -1.609375 Z M 1242.105469 24.402344 L 1251.578125 24.402344 L 1259.996094 16.089844 L 1259.996094 6.742188 Z M 1242.105469 24.402344 "/>
<g clip-path="url(#clip2)" clip-rule="nonzero">
<path style=" stroke:none;fill-rule:nonzero;fill:rgb(35.688782%,2.749634%,43.919373%);fill-opacity:1;" d="M 1374.175781 -1.609375 L 1347.832031 24.402344 L 1357.300781 24.402344 L 1383.648438 -1.609375 Z M 1392.101562 -1.609375 L 1365.757812 24.402344 L 1375.226562 24.402344 L 1401.574219 -1.609375 Z M 1356.25 -1.609375 L 1329.898438 24.402344 L 1339.371094 24.402344 L 1365.722656 -1.609375 Z M 1320.394531 -1.609375 L 1294.046875 24.402344 L 1303.519531 24.402344 L 1329.867188 -1.609375 Z M 1266.609375 -1.609375 L 1258.15625 6.738281 L 1258.15625 16.089844 L 1276.082031 -1.609375 Z M 1302.46875 -1.609375 L 1276.117188 24.402344 L 1285.589844 24.402344 L 1311.9375 -1.609375 Z M 1284.542969 -1.609375 L 1258.195312 24.402344 L 1267.664062 24.402344 L 1294.011719 -1.609375 Z M 1338.320312 -1.609375 L 1311.972656 24.402344 L 1321.445312 24.402344 L 1347.792969 -1.609375 Z M 1410.03125 -1.609375 L 1383.683594 24.402344 L 1393.15625 24.402344 L 1419.503906 -1.609375 Z M 1401.613281 24.402344 L 1411.082031 24.402344 L 1437.429688 -1.609375 L 1427.960938 -1.609375 Z M 1419.539062 24.402344 L 1429.011719 24.402344 L 1437.429688 16.089844 L 1437.429688 6.742188 Z M 1419.539062 24.402344 "/>
</g>
<g clip-path="url(#clip3)" clip-rule="nonzero">
<path style=" stroke:none;fill-rule:nonzero;fill:rgb(35.688782%,2.749634%,43.919373%);fill-opacity:1;" d="M -45.820312 -1.609375 L -72.164062 24.402344 L -62.695312 24.402344 L -36.347656 -1.609375 Z M -27.894531 -1.609375 L -54.238281 24.402344 L -44.765625 24.402344 L -18.421875 -1.609375 Z M -63.746094 -1.609375 L -90.097656 24.402344 L -80.625 24.402344 L -54.273438 -1.609375 Z M -99.601562 -1.609375 L -125.949219 24.402344 L -116.476562 24.402344 L -90.128906 -1.609375 Z M -153.386719 -1.609375 L -161.839844 6.738281 L -161.839844 16.089844 L -143.914062 -1.609375 Z M -117.527344 -1.609375 L -143.878906 24.402344 L -134.40625 24.402344 L -108.058594 -1.609375 Z M -135.453125 -1.609375 L -161.800781 24.402344 L -152.332031 24.402344 L -125.984375 -1.609375 Z M -81.675781 -1.609375 L -108.023438 24.402344 L -98.550781 24.402344 L -72.203125 -1.609375 Z M -9.964844 -1.609375 L -36.3125 24.402344 L -26.839844 24.402344 L -0.492188 -1.609375 Z M -18.382812 24.402344 L -8.914062 24.402344 L 17.433594 -1.609375 L 7.964844 -1.609375 Z M -0.457031 24.402344 L 9.015625 24.402344 L 17.433594 16.089844 L 17.433594 6.742188 Z M -0.457031 24.402344 "/>
</g>
</g>
</svg>
